<?xml version="1.0" encoding="utf-8"?>
<!-- Generator: Adobe Illustrator 14.0.0, SVG Export Plug-In . SVG Version: 6.00 Build 43363)  -->
<!DOCTYPE svg PUBLIC "-//W3C//DTD SVG 1.1//EN" "http://www.w3.org/Graphics/SVG/1.1/DTD/svg11.dtd">
<svg version="1.1" id="Layer_1" xmlns="http://www.w3.org/2000/svg" xmlns:xlink="http://www.w3.org/1999/xlink" x="0px" y="0px"
	 width="149.715px" height="39.088px" viewBox="0 0 149.715 39.088" enable-background="new 0 0 149.715 39.088"
	 xml:space="preserve">
<g>
	<g>
		<path fill="#1D1D1D" d="M2.547,14.78c0,2.589,0.739,3.686,4.111,3.686c1.04,0,2.217-0.323,3.701-1.042v-6.881l2.458,1.216v7.527
			c-1.856,0.798-4.203,1.617-6.244,1.617C1.541,20.903,0,18.68,0,14.93V6.004C0,1.889,1.982,0,6.898,0
			c1.688,0,3.643,0.35,5.475,0.773l-0.296,2.255c-1.896-0.333-3.672-0.651-5.299-0.651c-3.254,0-4.23,1.006-4.23,3.749V14.78z"/>
		<path fill="#1D1D1D" d="M76.653,0.306h2.457l5.769,18.008l5.778-18.008h2.454l-6.51,20.29h-3.432L76.653,0.306z"/>
		<path fill="#1D1D1D" d="M66.336,20.596h-2.461L58.108,2.589l-5.774,18.006h-2.453l6.508-20.29h3.436L66.336,20.596z"/>
		<path fill="#1D1D1D" d="M108.358,19.378l-2.543,1.218V0.306l2.543,1.217V19.378z"/>
		<path fill="#1D1D1D" d="M126.426,2.652h-4.666l-1.218-2.346h14.325l-1.216,2.346h-4.673v16.726l-2.553,1.218V2.652z"/>
		<path fill="#1D1D1D" d="M149.715,19.378l-2.546,1.218V0.306l2.546,1.217V19.378z"/>
		<path fill="#1D1D1D" d="M34.003,12.949c2.284-0.669,3.667-2.314,3.667-4.722V5.3c0-3.107-1.477-4.995-5.708-4.995h-6.813v20.29
			l2.547-1.218V2.652h4.178c2.427,0,3.252,0.67,3.252,2.678v2.929c0,1.962-1.418,2.663-3.783,2.681v2.402l4.851,7.254h2.929
			L34.003,12.949z"/>
	</g>
	<g>
		<path fill="#1D1D1D" d="M1.104,38.602L0,39.088v-8.56l1.104,0.608V38.602z"/>
		<path fill="#1D1D1D" d="M7.995,31.804v6.557l-1.053,0.728v-8.56h1.517l3.73,7.324v-6.596l1.048-0.729v8.56h-1.514L7.995,31.804z"
			/>
		<path fill="#1D1D1D" d="M21.632,31.519h-1.949l-0.606-0.99h6.218l-0.604,0.99h-1.953v6.965l-1.106,0.604V31.519z"/>
		<path fill="#1D1D1D" d="M31.027,30.528h5.039l-0.605,0.99h-3.33v2.687h3.65l-0.606,0.986h-3.044v2.904h3.338l0.605,0.992h-5.048
			V30.528z"/>
		<path fill="#1D1D1D" d="M67.542,36.762c0,1.198,0.466,1.583,1.868,1.583c0.511,0,1.344-0.141,2.002-0.259l0.116,0.954
			c-0.616,0.142-1.52,0.308-2.157,0.308c-2.099,0-2.929-0.903-2.929-2.519v-3.778c0-1.62,0.831-2.522,2.929-2.522
			c0.637,0,1.541,0.17,2.157,0.312l-0.116,0.951c-0.658-0.117-1.491-0.257-2.002-0.257c-1.401,0-1.868,0.387-1.868,1.584V36.762z"/>
		<path fill="#1D1D1D" d="M79.796,31.519h-1.952l-0.608-0.99h6.225l-0.608,0.99h-1.954v6.965l-1.103,0.604V31.519z"/>
		<path fill="#1D1D1D" d="M90.321,38.483l-1.103,0.604v-8.56l1.103,0.608V38.483z"/>
		<path fill="#1D1D1D" d="M96.105,30.528h1.065l2.502,7.598l2.507-7.598h1.066l-2.828,8.56h-1.49L96.105,30.528z"/>
		<path fill="#1D1D1D" d="M108.999,30.528h5.038l-0.609,0.99h-3.321v2.687h3.646l-0.607,0.986h-3.039v2.904h3.338l0.605,0.992h-5.05
			V30.528z"/>
		<path fill="#1D1D1D" d="M45.729,35.862c0.991-0.282,1.893-0.978,1.893-1.992v-1.231c0-1.313-0.643-2.11-2.481-2.11h-3.26v8.56
			l1.103-0.604v-2.05v-0.44v-0.981v-0.485v-3.008h2.119c1.054,0,1.415,0.285,1.415,1.13v1.234c0,0.837-0.886,1.129-1.94,1.129h-0.04
			v0.981h0.013l2.131,3.095h1.275L45.729,35.862z"/>
		<polygon fill="#1D1D1D" points="57.76,30.528 56.269,30.528 53.375,39.088 54.493,39.088 57.013,31.644 59.528,39.088 
			60.65,39.088 		"/>
	</g>
</g>
</svg>
